<svg width="54" height="54" viewBox="0 0 54 54" fill="none" xmlns="http://www.w3.org/2000/svg">
<circle cx="27" cy="27" r="27" fill="url(#paint0_linear_6_343)"/>
<circle cx="27" cy="27" r="27" fill="url(#paint1_linear_6_343)"/>
<mask id="mask0_6_343" style="mask-type:alpha" maskUnits="userSpaceOnUse" x="0" y="0" width="54" height="54">
<circle cx="27" cy="27" r="27" fill="white"/>
</mask>
<g mask="url(#mask0_6_343)">
<g filter="url(#filter0_d_6_343)">
<path d="M52.6855 47.9062V54H23.7988V48.7852L37.6562 33.8145C39.1016 32.1738 40.2441 30.748 41.084 29.5371C41.9238 28.3262 42.5195 27.2324 42.8711 26.2559C43.2422 25.2598 43.4277 24.3125 43.4277 23.4141C43.4277 22.1055 43.1934 20.9629 42.7246 19.9863C42.2559 18.9902 41.5723 18.2188 40.6738 17.6719C39.7949 17.125 38.7109 16.8516 37.4219 16.8516C35.9961 16.8516 34.7754 17.1836 33.7598 17.8477C32.7637 18.4922 32.002 19.3906 31.4746 20.543C30.9668 21.6953 30.7129 23.0137 30.7129 24.498H22.9492C22.9492 21.9785 23.5352 19.6836 24.707 17.6133C25.8789 15.5234 27.5586 13.8535 29.7461 12.6035C31.9336 11.3535 34.5312 10.7285 37.5391 10.7285C40.4688 10.7285 42.9492 11.2168 44.9805 12.1934C47.0117 13.1504 48.5547 14.5176 49.6094 16.2949C50.6641 18.0723 51.1914 20.1914 51.1914 22.6523C51.1914 24.0195 50.9668 25.3672 50.5176 26.6953C50.0684 28.0234 49.4336 29.3418 48.6133 30.6504C47.8125 31.9395 46.8555 33.248 45.7422 34.5762C44.6289 35.9043 43.3887 37.2617 42.0215 38.6484L33.7012 47.9062H52.6855Z" fill="white"/>
</g>
</g>
<defs>
<filter id="filter0_d_6_343" x="18.9492" y="8.72852" width="37.7363" height="51.2715" filterUnits="userSpaceOnUse" color-interpolation-filters="sRGB">
<feFlood flood-opacity="0" result="BackgroundImageFix"/>
<feColorMatrix in="SourceAlpha" type="matrix" values="0 0 0 0 0 0 0 0 0 0 0 0 0 0 0 0 0 0 127 0" result="hardAlpha"/>
<feOffset dy="2"/>
<feGaussianBlur stdDeviation="2"/>
<feComposite in2="hardAlpha" operator="out"/>
<feColorMatrix type="matrix" values="0 0 0 0 0 0 0 0 0 0 0 0 0 0 0 0 0 0 0.15 0"/>
<feBlend mode="normal" in2="BackgroundImageFix" result="effect1_dropShadow_6_343"/>
<feBlend mode="normal" in="SourceGraphic" in2="effect1_dropShadow_6_343" result="shape"/>
</filter>
<linearGradient id="paint0_linear_6_343" x1="2.34799e-07" y1="27" x2="54" y2="27" gradientUnits="userSpaceOnUse">
<stop stop-color="#8B85E0"/>
<stop offset="1" stop-color="#49A7E8"/>
</linearGradient>
<linearGradient id="paint1_linear_6_343" x1="27" y1="0.00190019" x2="27" y2="53.9981" gradientUnits="userSpaceOnUse">
<stop stop-color="#22C1C3"/>
<stop offset="0.1" stop-color="#22C1C3" stop-opacity="0.8"/>
<stop offset="0.3" stop-color="#22C1C3" stop-opacity="0.5"/>
<stop offset="0.4" stop-color="#22C1C3" stop-opacity="0.3"/>
<stop offset="0.6" stop-color="#22C1C3" stop-opacity="0.2"/>
<stop offset="0.7" stop-color="#22C1C3" stop-opacity="0.1"/>
<stop offset="0.9" stop-color="#22C1C3" stop-opacity="0"/>
<stop offset="1" stop-color="#22C1C3" stop-opacity="0"/>
</linearGradient>
</defs>
</svg>
